<!DOCTYPE svg PUBLIC "-//W3C//DTD SVG 20010904//EN" "http://www.w3.org/TR/2001/REC-SVG-20010904/DTD/svg10.dtd">
<svg version="1.0" xmlns="http://www.w3.org/2000/svg" width="364px" height="406px" viewBox="0 0 3640 4060" preserveAspectRatio="xMidYMid meet">
<g id="layer101" fill="#000000" stroke="none">
<path d="M1681 4053 c-99 -20 -231 -90 -835 -441 -698 -406 -729 -427 -779 -534 -67 -142 -62 -63 -65 -1031 -3 -877 -3 -877 28 -970 37 -110 84 -182 153 -235 29 -22 338 -206 687 -409 754 -438 733 -428 955 -427 140 0 155 2 230 30 53 19 307 161 734 409 703 409 733 429 784 537 66 140 62 72 62 1053 0 890 0 890 -27 956 -16 36 -28 70 -28 76 0 24 -87 125 -139 161 -90 64 -1281 753 -1336 774 -27 11 -68 26 -90 35 -40 16 -280 28 -334 16z m262 -512 c70 -25 1083 -614 1125 -654 47 -46 88 -113 106 -178 15 -49 16 -132 14 -701 -3 -644 -3 -644 -41 -720 -24 -49 -53 -91 -81 -115 -59 -52 -1078 -643 -1140 -661 -67 -20 -196 -12 -257 15 -25 11 -272 152 -550 313 -549 319 -584 345 -637 458 -27 57 -27 57 -27 728 0 670 0 670 37 745 20 40 54 91 75 111 45 43 1055 634 1128 660 68 24 181 23 248 -1z"/>
</g>
<g id="layer102" fill="#000000" stroke="none">
<path d="M1764 3340 c-22 -5 -57 -15 -76 -23 -54 -23 -838 -497 -875 -530 -63 -56 -60 -59 219 -226 102 -61 197 -111 211 -111 17 0 49 24 108 84 137 136 279 196 466 196 123 0 180 -13 292 -67 80 -38 108 -58 184 -135 74 -74 93 -89 113 -84 24 6 405 237 437 264 24 21 21 44 -10 74 -37 35 -836 517 -893 538 -59 23 -125 30 -176 20z"/>
<path d="M675 2570 c-19 -21 -20 -42 -23 -517 -2 -423 0 -504 13 -556 19 -72 63 -145 116 -190 36 -32 868 -497 927 -519 37 -14 60 -5 73 29 6 17 9 118 7 265 -3 199 -6 240 -19 253 -8 8 -57 27 -108 40 -138 37 -221 84 -322 185 -98 96 -157 198 -185 318 -22 94 -15 264 15 351 12 35 20 74 17 86 -4 16 -64 54 -224 143 -120 66 -230 124 -243 127 -18 4 -30 0 -44 -15z"/>
<path d="M2895 2574 c-113 -58 -400 -233 -411 -249 -11 -18 -10 -30 8 -85 32 -101 37 -283 9 -383 -36 -130 -83 -211 -180 -308 -98 -98 -183 -148 -309 -180 -42 -11 -83 -26 -92 -35 -21 -21 -27 -485 -7 -524 27 -51 52 -40 517 232 477 279 481 283 533 408 22 55 22 59 22 576 0 499 -1 523 -19 543 -23 25 -32 26 -71 5z"/>
<path d="M1721 2535 c-265 -48 -457 -282 -438 -535 18 -245 198 -433 454 -477 81 -13 98 -13 174 1 385 72 570 475 360 784 -80 119 -210 201 -359 228 -92 16 -96 16 -191 -1z"/>
</g>


</svg>